<?xml version="1.0" encoding="UTF-8"?>
<!DOCTYPE svg PUBLIC "-//W3C//DTD SVG 1.1//EN" "http://www.w3.org/Graphics/SVG/1.1/DTD/svg11.dtd">
<svg xmlns="http://www.w3.org/2000/svg" version="1.1" width="4096px" height="4096px" style="shape-rendering:geometricPrecision; text-rendering:geometricPrecision; image-rendering:optimizeQuality; fill-rule:evenodd; clip-rule:evenodd" xmlns:xlink="http://www.w3.org/1999/xlink">
  <g>
    <path style="opacity:1" fill="#659ad2" d="M 3606.5,1147.5 C 3395,1270.09 3183.33,1392.42 2971.5,1514.5C 2851.15,1309.98 2682.15,1160.48 2464.5,1066C 2348.97,1018.37 2235.8,991.203 2125,984.5C 2116.64,983.394 2107.97,982.394 2099,981.5C 2064.33,981.5 2029.67,981.5 1995,981.5C 1991.33,982.167 1987.67,982.833 1984,983.5C 1858.62,989.01 1732.12,1020.18 1604.5,1077C 1384.59,1180.23 1217.09,1339.07 1102,1553.5C 1030.03,1694.49 990.533,1837.32 983.5,1982C 982.833,1986 982.167,1990 981.5,1994C 981.833,1997 982.167,2000 982.5,2003C 981.833,2008.67 981.167,2014.33 980.5,2020C 981.833,2038 981.833,2056 980.5,2074C 981.167,2080 981.833,2086 982.5,2092C 981.471,2097.73 981.805,2104.39 983.5,2112C 987.805,2206.51 1006.97,2303.01 1041,2401.5C 1063.39,2464.26 1091.23,2524.26 1124.5,2581.5C 912.242,2703.1 700.242,2825.1 488.5,2947.5C 465.456,2908.11 451.789,2866.95 447.5,2824C 447.501,2305.72 447.501,1787.72 447.5,1270C 457.387,1190.28 493.054,1122.28 554.5,1066C 562.886,1059.28 571.553,1052.95 580.5,1047C 1015.43,796.399 1450.09,545.399 1884.5,294C 1907.04,279.647 1930.87,268.147 1956,259.5C 1958.4,259.935 1960.73,259.269 1963,257.5C 1964.34,258.214 1965.68,257.88 1967,256.5C 1968.34,257.214 1969.68,256.88 1971,255.5C 1972.34,256.214 1973.68,255.88 1975,254.5C 1976.63,255.097 1978.29,254.763 1980,253.5C 1982,253.5 1984,253.5 1986,253.5C 1987.71,252.237 1989.37,251.903 1991,252.5C 1992.67,251.833 1994.33,251.167 1996,250.5C 1996.33,250.833 1996.67,251.167 1997,251.5C 1999,250.833 2001,250.167 2003,249.5C 2006.93,249.19 2010.6,249.19 2014,249.5C 2065.96,243.219 2116.8,250.052 2166.5,270C 2181.46,277.477 2196.12,285.477 2210.5,294C 2644.91,545.399 3079.57,796.399 3514.5,1047C 3553.03,1073.36 3583.7,1106.86 3606.5,1147.5 Z" />
  </g>
  <g>
    <path style="opacity:1" fill="#fefffe" d="M 2971.5,1514.5 C 2817.2,1602.98 2663.2,1691.98 2509.5,1781.5C 2425.01,1642.61 2304.17,1556.61 2147,1523.5C 2146.67,1523.83 2146.33,1524.17 2146,1524.5C 2140.71,1523.01 2135.38,1521.68 2130,1520.5C 2129.67,1520.83 2129.33,1521.17 2129,1521.5C 2124.67,1520.5 2120.33,1519.5 2116,1518.5C 2115.67,1518.83 2115.33,1519.17 2115,1519.5C 2032.99,1507.89 1950.16,1516.73 1866.5,1546C 1717.24,1603.26 1612.08,1705.76 1551,1853.5C 1530.23,1907.35 1518.73,1959.85 1516.5,2011C 1508.95,2099.55 1525.78,2188.72 1567,2278.5C 1572.98,2290.46 1579.48,2302.12 1586.5,2313.5C 1651.85,2425 1745.18,2503.5 1866.5,2549C 2022.31,2601.81 2171.98,2588.14 2315.5,2508C 2396.71,2460.29 2461.05,2395.79 2508.5,2314.5C 2509.12,2314.39 2509.62,2314.06 2510,2313.5C 2663.18,2402.34 2816.35,2491.17 2969.5,2580C 2970.25,2580.67 2970.59,2581.5 2970.5,2582.5C 2847.94,2788.87 2675.94,2939.04 2454.5,3033C 2230.73,3123.16 2002.07,3137.83 1768.5,3077C 1509.17,3002.86 1304.67,2854.36 1155,2631.5C 1144.57,2614.97 1134.4,2598.31 1124.5,2581.5C 1091.23,2524.26 1063.39,2464.26 1041,2401.5C 1006.97,2303.01 987.805,2206.51 983.5,2112C 981.805,2104.39 981.471,2097.73 982.5,2092C 981.833,2086 981.167,2080 980.5,2074C 981.833,2056 981.833,2038 980.5,2020C 981.167,2014.33 981.833,2008.67 982.5,2003C 982.167,2000 981.833,1997 981.5,1994C 982.167,1990 982.833,1986 983.5,1982C 990.533,1837.32 1030.03,1694.49 1102,1553.5C 1217.09,1339.07 1384.59,1180.23 1604.5,1077C 1732.12,1020.18 1858.62,989.01 1984,983.5C 1987.67,982.833 1991.33,982.167 1995,981.5C 2029.67,981.5 2064.33,981.5 2099,981.5C 2107.97,982.394 2116.64,983.394 2125,984.5C 2235.8,991.203 2348.97,1018.37 2464.5,1066C 2682.15,1160.48 2851.15,1309.98 2971.5,1514.5 Z" />
  </g>
  <g>
    <path style="opacity:1" fill="#00599c" d="M 3606.5,1147.5 C 3629.51,1186.68 3643.17,1227.52 3647.5,1270C 3647.5,1787.72 3647.5,2305.72 3647.5,2824C 3643.23,2866.85 3629.56,2908.01 3606.5,2947.5C 3395.01,2825.01 3183.51,2702.68 2972,2580.5C 2971.72,2581.42 2971.22,2582.08 2970.5,2582.5C 2970.59,2581.5 2970.25,2580.67 2969.5,2580C 2816.35,2491.17 2663.18,2402.34 2510,2313.5C 2509.62,2314.06 2509.12,2314.39 2508.5,2314.5C 2507.28,2312.55 2505.62,2311.05 2503.5,2310C 2351.48,2222.99 2199.81,2135.49 2048.5,2047.5C 2201.97,1958.6 2355.63,1869.93 2509.5,1781.5C 2663.2,1691.98 2817.2,1602.98 2971.5,1514.5C 3183.33,1392.42 3395,1270.09 3606.5,1147.5 Z" />
  </g>
  <g>
    <path style="opacity:1" fill="#659ad2" d="M 2509.5,1781.5 C 2355.63,1869.93 2201.97,1958.6 2048.5,2047.5C 1894.47,2136.18 1740.47,2224.85 1586.5,2313.5C 1579.48,2302.12 1572.98,2290.46 1567,2278.5C 1525.78,2188.72 1508.95,2099.55 1516.5,2011C 1518.73,1959.85 1530.23,1907.35 1551,1853.5C 1612.08,1705.76 1717.24,1603.26 1866.5,1546C 1950.16,1516.73 2032.99,1507.89 2115,1519.5C 2115.33,1519.17 2115.67,1518.83 2116,1518.5C 2120.33,1519.5 2124.67,1520.5 2129,1521.5C 2129.33,1521.17 2129.67,1520.83 2130,1520.5C 2135.38,1521.68 2140.71,1523.01 2146,1524.5C 2146.33,1524.17 2146.67,1523.83 2147,1523.5C 2304.17,1556.61 2425.01,1642.61 2509.5,1781.5 Z" />
  </g>
  <g>
    <path style="opacity:1" fill="#fefffe" d="M 2995.5,1987.5 C 3034.66,1988.5 3074,1988.83 3113.5,1988.5C 3113.5,2027.83 3113.5,2067.17 3113.5,2106.5C 3074,2106.17 3034.66,2106.5 2995.5,2107.5C 2995.5,2146.83 2995.5,2186.17 2995.5,2225.5C 2955.83,2225.5 2916.17,2225.5 2876.5,2225.5C 2876.5,2186.17 2876.5,2146.83 2876.5,2107.5C 2837.34,2106.5 2798,2106.17 2758.5,2106.5C 2758.5,2067.17 2758.5,2027.83 2758.5,1988.5C 2798,1988.83 2837.34,1988.5 2876.5,1987.5C 2876.5,1948.17 2876.5,1908.83 2876.5,1869.5C 2916.17,1869.5 2955.83,1869.5 2995.5,1869.5C 2995.5,1908.83 2995.5,1948.17 2995.5,1987.5 Z" />
  </g>
  <g>
    <path style="opacity:1" fill="#fefffe" d="M 3321.5,1869.5 C 3360.83,1869.5 3400.17,1869.5 3439.5,1869.5C 3439.33,1908.83 3439.5,1948.17 3440,1987.5C 3479.43,1988.5 3518.93,1988.83 3558.5,1988.5C 3558.5,2027.83 3558.5,2067.17 3558.5,2106.5C 3519.17,2106.33 3479.83,2106.5 3440.5,2107C 3439.5,2146.43 3439.17,2185.93 3439.5,2225.5C 3400.17,2225.5 3360.83,2225.5 3321.5,2225.5C 3321.67,2186.17 3321.5,2146.83 3321,2107.5C 3281.57,2106.5 3242.07,2106.17 3202.5,2106.5C 3202.5,2067.17 3202.5,2027.83 3202.5,1988.5C 3241.83,1988.67 3281.17,1988.5 3320.5,1988C 3321.5,1948.57 3321.83,1909.07 3321.5,1869.5 Z" />
  </g>
  <g>
    <path style="opacity:1" fill="#659ad2" d="M 2876.5,1987.5 C 2837.34,1988.5 2798,1988.83 2758.5,1988.5C 2758.5,2027.83 2758.5,2067.17 2758.5,2106.5C 2798,2106.17 2837.34,2106.5 2876.5,2107.5C 2836.83,2107.5 2797.17,2107.5 2757.5,2107.5C 2757.5,2067.5 2757.5,2027.5 2757.5,1987.5C 2797.17,1987.5 2836.83,1987.5 2876.5,1987.5 Z" />
  </g>
  <g>
    <path style="opacity:1" fill="#659ad2" d="M 2995.5,1987.5 C 3035.17,1987.5 3074.83,1987.5 3114.5,1987.5C 3114.5,2027.5 3114.5,2067.5 3114.5,2107.5C 3074.83,2107.5 3035.17,2107.5 2995.5,2107.5C 3034.66,2106.5 3074,2106.17 3113.5,2106.5C 3113.5,2067.17 3113.5,2027.83 3113.5,1988.5C 3074,1988.83 3034.66,1988.5 2995.5,1987.5 Z" />
  </g>
  <g>
    <path style="opacity:1" fill="#004482" d="M 2048.5,2047.5 C 2199.81,2135.49 2351.48,2222.99 2503.5,2310C 2505.62,2311.05 2507.28,2312.55 2508.5,2314.5C 2461.05,2395.79 2396.71,2460.29 2315.5,2508C 2171.98,2588.14 2022.31,2601.81 1866.5,2549C 1745.18,2503.5 1651.85,2425 1586.5,2313.5C 1740.47,2224.85 1894.47,2136.18 2048.5,2047.5 Z" />
  </g>
  <g>
    <path style="opacity:1" fill="#004482" d="M 3606.5,2947.5 C 3588.2,2980.31 3564.54,3008.81 3535.5,3033C 3527.18,3039.49 3518.52,3045.49 3509.5,3051C 3067.67,3305.75 2626,3560.75 2184.5,3816C 2150.25,3833.75 2115.75,3843.59 2081,3845.5C 2078.33,3846.17 2075.67,3846.83 2073,3847.5C 2056.33,3847.5 2039.67,3847.5 2023,3847.5C 1997.79,3845.07 1972.29,3839.9 1946.5,3832C 1934.92,3827.58 1923.58,3822.58 1912.5,3817C 1467.5,3560 1022.5,3303 577.5,3046C 540.259,3019.93 510.592,2987.1 488.5,2947.5C 700.242,2825.1 912.242,2703.1 1124.5,2581.5C 1134.4,2598.31 1144.57,2614.97 1155,2631.5C 1304.67,2854.36 1509.17,3002.86 1768.5,3077C 2002.07,3137.83 2230.73,3123.16 2454.5,3033C 2675.94,2939.04 2847.94,2788.87 2970.5,2582.5C 2971.22,2582.08 2971.72,2581.42 2972,2580.5C 3183.51,2702.68 3395.01,2825.01 3606.5,2947.5 Z" />
  </g>
</svg>