<svg viewBox="250.5 151.5 708.8061878453038 719.85" xmlns:xlink="http://www.w3.org/1999/xlink" style="max-height: 500px" version="1.1" xmlns="http://www.w3.org/2000/svg" width="708.8061878453038" height="719.85">
  <g>
    <path d="M 579.5,151.5 C 587.277,160.387 592.444,170.72 595,182.5C 600.851,217.761 593.184,249.761 572,278.5C 549.833,306 525,330.833 497.5,353C 486.637,363.529 476.137,374.363 466,385.5C 445.946,409.47 440.613,436.47 450,466.5C 455.447,484.395 463.78,500.729 475,515.5C 483.63,525.798 492.63,535.798 502,545.5C 502.601,546.965 502.101,547.965 500.5,548.5C 472.28,533.124 448.113,512.791 428,487.5C 407.986,460.1 402.653,430.1 412,397.5C 418.274,382.569 426.941,369.236 438,357.5C 448.563,346.268 459.73,335.768 471.5,326C 497.816,306.028 522.649,284.194 546,260.5C 563.371,242.095 574.704,220.428 580,195.5C 581.821,181.352 580.988,167.352 577.5,153.5C 578.243,152.818 578.909,152.151 579.5,151.5 Z" fill="#f19110" style="opacity:0.964"/>
  </g>
  <g>
    <path d="M 644.5,299.5 C 646.645,299.917 647.312,300.917 646.5,302.5C 615.371,318.134 588.871,339.467 567,366.5C 548.279,392.316 546.945,418.983 563,446.5C 570.253,458.671 577.253,471.004 584,483.5C 591.317,502.936 588.65,520.936 576,537.5C 565.86,550.145 554.026,560.812 540.5,569.5C 538.77,568.974 537.436,567.974 536.5,566.5C 551.83,547.981 554.664,527.647 545,505.5C 537.503,491.835 529.503,478.502 521,465.5C 503.814,431.975 506.814,400.308 530,370.5C 546.571,351.256 566.071,335.756 588.5,324C 606.671,314.408 625.338,306.241 644.5,299.5 Z" fill="#f19110" style="opacity:0.964"/>
  </g>
  <g>
    <path d="M 701.5,539.5 C 720.835,536.997 738.502,541.164 754.5,552C 770.136,566.37 775.302,583.87 770,604.5C 765.188,618.615 757.022,630.448 745.5,640C 720.708,658.98 693.208,672.813 663,681.5C 661.581,680.54 660.081,679.707 658.5,679C 672.681,670.746 686.347,661.746 699.5,652C 710.411,643.091 719.911,632.924 728,621.5C 736.264,607.844 739.264,593.177 737,577.5C 730.372,558.391 716.872,548.058 696.5,546.5C 693.173,547.224 689.839,547.39 686.5,547C 687.167,545.667 687.833,544.333 688.5,543C 692.919,541.648 697.252,540.481 701.5,539.5 Z" fill="#00758f" style="opacity:0.951"/>
  </g>
  <g>
    <path d="M 421.5,545.5 C 424.85,545.335 428.183,545.502 431.5,546C 432.167,546.667 432.833,547.333 433.5,548C 414.803,551.258 396.47,555.924 378.5,562C 374.069,563.629 370.236,566.129 367,569.5C 366.018,570.759 365.685,572.092 366,573.5C 367.938,576.106 370.438,577.939 373.5,579C 402.245,587.202 431.578,591.869 461.5,593C 516.551,596.041 571.218,592.708 625.5,583C 633.251,581.483 640.918,579.65 648.5,577.5C 656.163,581.329 663.496,585.663 670.5,590.5C 663.202,594.212 655.536,597.045 647.5,599C 589.648,612.896 530.982,618.562 471.5,616C 433.325,615.349 395.659,610.683 358.5,602C 347.379,599.182 336.713,595.182 326.5,590C 315.833,582.667 315.833,575.333 326.5,568C 343.049,560.195 360.382,554.862 378.5,552C 392.94,549.574 407.273,547.407 421.5,545.5 Z" fill="#00758f" style="opacity:0.956"/>
  </g>
  <g>
    <path d="M 400.5,630.5 C 401.756,630.461 402.756,630.961 403.5,632C 399.216,634.447 396.216,637.947 394.5,642.5C 394.848,644.697 395.848,646.53 397.5,648C 410.767,654.484 424.767,658.484 439.5,660C 497.414,667.047 554.748,663.88 611.5,650.5C 621.122,655.311 630.455,660.645 639.5,666.5C 629.757,671.805 619.424,675.638 608.5,678C 537.639,693.765 466.639,694.432 395.5,680C 381.673,677.503 368.673,672.837 356.5,666C 345.966,658.576 345.966,651.243 356.5,644C 370.701,637.622 385.368,633.122 400.5,630.5 Z" fill="#00758f" style="opacity:0.963"/>
  </g>
  <g>
    <path d="M 418.5,712.5 C 420.429,712.231 422.095,712.731 423.5,714C 419.633,717.418 419.633,720.751 423.5,724C 429.433,727.401 435.766,729.734 442.5,731C 486.548,737.85 530.382,736.684 574,727.5C 585.709,732.936 596.876,739.27 607.5,746.5C 599.182,751.778 590.182,755.611 580.5,758C 544.347,766.953 507.68,769.953 470.5,767C 446.475,765.662 423.142,760.995 400.5,753C 392.883,750.368 386.716,745.868 382,739.5C 380.126,732.989 381.959,727.822 387.5,724C 397.292,718.461 407.626,714.628 418.5,712.5 Z" fill="#00758f" style="opacity:0.97"/>
  </g>
  <g>
    <path d="M 347.5,734.5 C 350.893,734.062 353.893,734.895 356.5,737C 338.945,741.063 323.111,748.563 309,759.5C 301.222,767.325 301.722,774.492 310.5,781C 323.158,787.775 336.491,792.775 350.5,796C 410.129,809.299 470.462,814.299 531.5,811C 569.525,809.738 607.192,805.405 644.5,798C 665.999,794.059 685.999,786.392 704.5,775C 708.699,770.739 712.533,766.239 716,761.5C 727.277,771.999 727.11,782.499 715.5,793C 698.068,804.428 679.068,812.261 658.5,816.5C 550.817,838.617 442.817,840.117 334.5,821C 310.482,817.247 287.482,810.247 265.5,800C 257.495,796 252.495,789.666 250.5,781C 251.51,775.646 253.844,770.98 257.5,767C 269.217,757.974 282.217,751.308 296.5,747C 313.365,741.733 330.365,737.566 347.5,734.5 Z" fill="#00758f" style="opacity:0.96"/>
  </g>
  <g>
    <path d="M 751.5,796.5 C 752.5,796.5 753.5,796.5 754.5,796.5C 754.157,802.364 752.323,807.697 749,812.5C 738.341,824.419 725.508,833.252 710.5,839C 674.027,852.868 636.36,861.868 597.5,866C 529.365,874.019 461.365,873.019 393.5,863C 375.418,860.286 357.751,856.119 340.5,850.5C 341.874,849.289 343.374,848.289 345,847.5C 426.932,860.411 509.099,861.911 591.5,852C 625.929,848.114 659.596,840.781 692.5,830C 710.282,823.776 726.949,815.442 742.5,805C 745.957,802.613 748.957,799.78 751.5,796.5 Z" fill="#00758f" style="opacity:0.93"/>
  </g>
</svg>