<?xml version="1.0" encoding="UTF-8"?>
<svg version="1.1" xmlns="http://www.w3.org/2000/svg" width="1280" height="1275">
  <path d="M0 0 C0.97437201 -0.00282738 1.94874401 -0.00565475 2.95264244 -0.00856781 C8.12411122 -0.02344119 13.29555303 -0.03274145 18.46704102 -0.03710938 C22.65039951 -0.04146225 26.83354807 -0.05524701 31.0168457 -0.078125 C57.49955533 -0.21996772 83.63178359 0.46389709 109.98046875 3.203125 C111.06342193 3.31428587 111.06342193 3.31428587 112.16825294 3.42769241 C177.92000925 10.1842713 247.66491446 25.68460449 297.98046875 71.203125 C298.52058594 71.69119629 299.06070313 72.17926758 299.6171875 72.68212891 C315.19423257 86.97804527 327.06310785 104.83577625 334.29296875 124.703125 C334.63884033 125.64381836 334.63884033 125.64381836 334.99169922 126.60351562 C335.73782208 128.78541788 336.36105599 130.98162197 336.98046875 133.203125 C337.23538684 134.08444753 337.49030493 134.96577005 337.75294781 135.87379932 C340.9890418 149.14069653 340.40152472 162.71537299 340.35798371 176.28197014 C340.34905971 180.096041 340.35760883 183.91008092 340.36384583 187.72415161 C340.37328991 195.17849051 340.36677187 202.63273196 340.35458288 210.08706357 C340.34089018 218.78889688 340.34260725 227.49070757 340.34471621 236.19254891 C340.34789995 251.73458697 340.33627576 267.27657908 340.31665039 282.81860352 C340.2976654 297.85768026 340.29055935 312.89670314 340.29614258 327.93579102 C340.30221932 344.35254562 340.30198746 360.76927659 340.29065675 377.18602926 C340.2894496 378.94146144 340.28824362 380.69689363 340.2870388 382.45232582 C340.2861335 383.74750934 340.2861335 383.74750934 340.2852099 385.06885817 C340.28135169 391.11600389 340.28171625 397.16314075 340.28362465 403.21028709 C340.28576103 410.59663793 340.28041494 417.98294193 340.2660111 425.36927965 C340.25883497 429.12875197 340.25463092 432.88815657 340.25925446 436.64763451 C340.30767538 481.7137264 334.05427804 524.67668113 303.98046875 560.203125 C302.93052734 561.45609375 302.93052734 561.45609375 301.859375 562.734375 C296.44058258 568.99351491 290.51707315 574.14397228 283.98046875 579.203125 C282.66175781 580.28013672 282.66175781 580.28013672 281.31640625 581.37890625 C250.55878539 605.76839997 208.20216904 617.3598274 169.4042511 617.34788513 C168.03860328 617.35102423 166.67295641 617.35460026 165.30731076 617.35857254 C161.57339282 617.3682151 157.83949018 617.37181194 154.10556161 617.37441552 C150.07048914 617.37832679 146.03542995 617.38796363 142.00036621 617.39697266 C135.01061081 617.41188422 128.02085646 617.42344157 121.03109169 617.43292046 C110.90120069 617.44683479 100.7713343 617.46803021 90.64146104 617.49134899 C74.17333337 617.52924284 57.70520122 617.56420712 41.23706055 617.59594727 C40.25204617 617.59784776 39.2670318 617.59974825 38.2521685 617.60170633 C24.29866565 617.62849212 10.34515933 617.65237982 -3.60835067 617.67509133 C-4.58942356 617.67668863 -5.57049645 617.67828594 -6.58129883 617.67993164 C-7.56116497 617.68152511 -8.54103112 617.68311857 -9.55059018 617.68476032 C-25.94295932 617.71161444 -42.33530234 617.74605115 -58.72764331 617.78658539 C-68.81854052 617.81123733 -78.90940977 617.82963231 -89.00033221 617.839741 C-95.93112908 617.8471849 -102.86188835 617.86178972 -109.7926602 617.88180523 C-113.77916206 617.89309043 -117.76560361 617.90133765 -121.75212288 617.90079689 C-143.0749012 617.90067354 -164.29056549 618.21960915 -185.26953125 622.453125 C-186.90571411 622.77953979 -186.90571411 622.77953979 -188.57495117 623.11254883 C-227.8396521 631.26269918 -262.36219757 652.80494801 -284.78759766 686.29833984 C-288.52843707 692.08233293 -291.83212267 698.1006449 -295.01953125 704.203125 C-295.33519043 704.8017334 -295.65084961 705.4003418 -295.97607422 706.01708984 C-310.28322393 733.55434277 -316.29876467 765.79398561 -316.33837891 796.60327148 C-316.34770305 798.2901964 -316.3578753 799.9771168 -316.36882019 801.66403198 C-316.39585442 806.1939815 -316.41118964 810.72390041 -316.42424822 815.25390887 C-316.43999657 820.00647113 -316.46674873 824.75897191 -316.49227905 829.51148987 C-316.53886139 838.48891468 -316.5757042 847.46635134 -316.60895193 856.44383436 C-316.64731946 866.67377191 -316.69669075 876.90364738 -316.74693608 887.1335324 C-316.84994996 908.15668397 -316.93930861 929.17987491 -317.01953125 950.203125 C-332.71128032 950.297131 -348.40295166 950.36737677 -364.09491348 950.41037369 C-371.38319641 950.4308806 -378.67130302 950.45876968 -385.95947266 950.50488281 C-392.32188577 950.54511892 -398.68417103 950.5706437 -405.04670787 950.57947898 C-408.40665474 950.58463268 -411.76595005 950.5986834 -415.1258316 950.62604523 C-460.872261 950.98339768 -497.90897095 935.34993193 -530.83203125 903.640625 C-547.15512199 886.66623886 -559.97278508 866.42298649 -570.04882812 845.23925781 C-570.68036539 843.91455439 -571.31931814 842.59335229 -571.96679688 841.27636719 C-584.16733302 816.38272667 -591.35054891 789.21560105 -597.01953125 762.203125 C-597.39749225 760.50369575 -597.77629941 758.80445429 -598.15625 757.10546875 C-600.69524084 745.29422477 -602.13928008 733.30534616 -603.64453125 721.328125 C-603.74912659 720.51435394 -603.85372192 719.70058289 -603.96148682 718.8621521 C-607.32467509 692.4400003 -608.36486503 666.00894807 -608.28027344 639.40478516 C-608.26885829 635.7943376 -608.27569639 632.18418438 -608.28714466 628.57374668 C-608.35480718 603.43780206 -607.24221392 578.44669942 -603.83203125 553.515625 C-603.72660004 552.73216705 -603.62116882 551.94870911 -603.51254272 551.14151001 C-595.38355701 491.29864056 -577.58267277 431.88770045 -536.04296875 386.44921875 C-534.44541197 384.67586904 -532.93569633 382.88628518 -531.45703125 381.015625 C-528.26850819 377.33655993 -524.76914713 374.2990836 -521.01953125 371.203125 C-519.53646484 369.96369141 -519.53646484 369.96369141 -518.0234375 368.69921875 C-488.85962552 344.78057236 -451.06384246 328.93798059 -412.97609711 329.08007717 C-412.20372145 329.07892333 -411.43134579 329.07776948 -410.6355648 329.07658067 C-408.05629689 329.07394101 -405.47709183 329.07841423 -402.89782715 329.08287048 C-401.02651279 329.08243424 -399.1551985 329.08155835 -397.28388453 329.08028132 C-392.14844014 329.07804681 -387.01301664 329.08204339 -381.87757492 329.08705938 C-376.33710481 329.09137865 -370.79663587 329.0899164 -365.25616455 329.0891571 C-355.65915142 329.08863281 -346.06214509 329.09176978 -336.46513367 329.09739494 C-322.58947264 329.10552268 -308.7138149 329.10812647 -294.83815175 329.10938293 C-272.32569301 329.11157145 -249.81323784 329.11821751 -227.30078125 329.12768555 C-205.43229186 329.13687213 -183.56380344 329.14395469 -161.6953125 329.14819336 C-161.02105144 329.14832489 -160.34679037 329.14845641 -159.65209716 329.14859192 C-152.88079736 329.14991046 -146.10949755 329.15118627 -139.33819774 329.15243078 C-82.56530623 329.16286919 -25.79241922 329.18079157 30.98046875 329.203125 C30.98046875 315.673125 30.98046875 302.143125 30.98046875 288.203125 C27.1240419 288.20534561 23.26761505 288.20756622 19.29432678 288.20985413 C-16.03064931 288.22973293 -51.35562471 288.24467205 -86.68060517 288.25419033 C-91.30586895 288.25544111 -95.93113272 288.25673542 -100.55639648 288.25805664 C-101.93766704 288.25845011 -101.93766704 288.25845011 -103.34684206 288.25885152 C-118.27737811 288.26320854 -133.20791034 288.27109626 -148.13844412 288.2802778 C-163.44672669 288.28961345 -178.75500726 288.29518042 -194.06329256 288.29721349 C-203.51720328 288.29858891 -212.97110318 288.30294047 -222.42501057 288.31104147 C-228.89878345 288.31630784 -235.3725507 288.31792955 -241.84632557 288.31662638 C-245.58712411 288.31598283 -249.32790367 288.31700242 -253.06869888 288.32233047 C-257.11461376 288.32805137 -261.16048767 288.32612619 -265.20640564 288.32337952 C-266.99965449 288.32774878 -266.99965449 288.32774878 -268.82913059 288.33220631 C-269.90400748 288.33021526 -270.97888436 288.32822421 -272.08633327 288.32617283 C-273.02158445 288.32655255 -273.95683562 288.32693227 -274.92042774 288.3273235 C-277.01953125 288.203125 -277.01953125 288.203125 -278.01953125 287.203125 C-278.13283983 285.24582952 -278.17533537 283.2844218 -278.19120789 281.32391357 C-278.20388702 280.04554626 -278.21656616 278.76717896 -278.22962952 277.45007324 C-278.23872522 276.01977608 -278.24770883 274.58947819 -278.2565918 273.15917969 C-278.26943799 271.66289936 -278.28269218 270.16662248 -278.29632568 268.67034912 C-278.33204114 264.59118147 -278.36122683 260.51199169 -278.38871741 256.43276119 C-278.40620678 253.88130465 -278.42508616 251.32986233 -278.44446754 248.77841949 C-278.51212239 239.8676092 -278.57449987 230.95677938 -278.63208008 222.04589844 C-278.68576621 213.75895047 -278.75086798 205.47214635 -278.82141846 197.18532634 C-278.88154477 190.06248979 -278.93353387 182.93962309 -278.97934562 175.81668019 C-279.00681638 171.56680361 -279.0374788 167.31701142 -279.0763607 163.0672226 C-279.11275695 159.0585214 -279.13892744 155.04987527 -279.15763855 151.04105377 C-279.16612887 149.57906065 -279.17809407 148.11708235 -279.19402504 146.65515137 C-279.51519603 116.38870576 -269.34090927 92.18422961 -248.63208008 70.46655273 C-228.68471954 50.17216771 -202.48733334 36.88447246 -176.01953125 27.203125 C-174.79508301 26.75308105 -174.79508301 26.75308105 -173.54589844 26.29394531 C-135.25138974 12.41956188 -94.65320602 6.34091248 -54.26953125 2.515625 C-52.38113525 2.33652588 -52.38113525 2.33652588 -50.45458984 2.15380859 C-33.63272719 0.63295198 -16.88500969 0.03389719 0 0 Z M-186.01953125 118.203125 C-195.86289371 130.3715201 -200.21984116 144.67653547 -199.01953125 160.203125 C-197.12055254 174.3246212 -190.58826403 186.62889818 -180.01953125 196.203125 C-166.98953506 206.12347349 -152.78545099 210.30129132 -136.47265625 208.73828125 C-122.25511612 206.53488419 -108.80332008 199.1453921 -100.04296875 187.59765625 C-90.74275988 173.56819223 -87.10171765 159.00311379 -90.08203125 142.390625 C-93.35066426 128.38871336 -101.33601884 116.45615301 -113.26953125 108.390625 C-137.59345547 93.91942958 -166.48975181 96.83227578 -186.01953125 118.203125 Z " fill="#3672A4" transform="translate(608.01953125,-0.203125)" />
  <path d="M0 0 C15.69174907 -0.094006 31.38342041 -0.16425177 47.07538223 -0.20724869 C54.36366516 -0.2277556 61.65177177 -0.25564468 68.93994141 -0.30175781 C75.30235452 -0.34199392 81.66463978 -0.3675187 88.02717662 -0.37635398 C91.38712349 -0.38150768 94.7464188 -0.3955584 98.10630035 -0.42292023 C117.5519454 -0.57482168 135.80280259 0.63368306 154.125 7.625 C155.4874585 8.13595215 155.4874585 8.13595215 156.87744141 8.65722656 C177.64398993 16.72000322 195.05576737 29.6462945 211 45 C211.6290625 45.5775 212.258125 46.155 212.90625 46.75 C219.00369193 52.50230371 223.95561248 59.33470614 229 66 C229.43248047 66.56638184 229.86496094 67.13276367 230.31054688 67.71630859 C237.55824208 77.26729677 243.48853411 87.36244025 249 98 C249.4125 98.79229004 249.825 99.58458008 250.25 100.40087891 C271.84039666 142.39251367 282.00956538 190.26985948 286.78710938 236.98486328 C286.99456263 238.94853202 287.22355894 240.90988718 287.453125 242.87109375 C290.14128594 266.06806874 290.31809478 289.30204844 290.36836243 312.62553406 C290.37486585 315.07448285 290.38630848 317.52336528 290.39880371 319.97229004 C290.63760589 373.96099353 285.28053068 428.89265154 267 480 C266.5369043 481.33442139 266.5369043 481.33442139 266.06445312 482.69580078 C248.69160395 532.56469289 216.48809324 577.37189687 169 602 C168.34338379 602.34659668 167.68676758 602.69319336 167.01025391 603.05029297 C150.23089685 611.81243454 131.74251413 617.40518974 113 620 C112.37294934 620.08715741 111.74589868 620.17431482 111.09984648 620.26411337 C102.30695934 621.31254567 93.47706664 621.13557928 84.63778687 621.12025452 C82.7647464 621.12069096 80.89170599 621.12156721 79.01866591 621.12284368 C73.8877402 621.12507429 68.75683546 621.12108701 63.62591243 621.11606562 C58.08684081 621.11174069 52.54777034 621.113209 47.00869751 621.1139679 C37.41717627 621.11449183 27.82566183 621.1113586 18.2341423 621.10573006 C4.36647327 621.09759747 -9.50119247 621.09499803 -23.36886363 621.09374207 C-45.86912063 621.09155431 -68.36937406 621.08491033 -90.86962891 621.07543945 C-112.72444642 621.0662509 -134.57926297 621.0591693 -156.43408203 621.05493164 C-157.10808004 621.05480011 -157.78207805 621.05466859 -158.47650024 621.05453308 C-165.24524081 621.05321452 -172.01398137 621.05193872 -178.78272195 621.05069422 C-235.52181731 621.04025819 -292.26090817 621.02233771 -349 621 C-349 634.86 -349 648.72 -349 663 C-247.03 663 -145.06 663 -40 663 C-39.773125 688.41 -39.54625 713.82 -39.3125 740 C-39.19322144 751.99794922 -39.19322144 751.99794922 -39.0715332 764.23828125 C-38.99450684 774.06835937 -38.99450684 774.06835937 -38.96232605 778.68237305 C-38.93896866 781.8784545 -38.90693968 785.07431757 -38.86943054 788.27026367 C-38.82165402 792.36609821 -38.78930318 796.46180009 -38.76740491 800.55785179 C-38.75693649 802.04907146 -38.74136895 803.54026782 -38.71966994 805.03136635 C-38.33734683 832.02379841 -46.93538966 856.06195803 -65.67822266 875.62084961 C-67.11228099 877.08698617 -68.55586041 878.5437924 -70 880 C-70.69867187 880.74765625 -71.39734375 881.4953125 -72.1171875 882.265625 C-77.49496847 887.93349374 -83.58965278 892.55979691 -90 897 C-90.56122559 897.38913574 -91.12245117 897.77827148 -91.70068359 898.17919922 C-141.47871022 932.11054884 -205.30647248 942.62689247 -264.125 947.6875 C-264.83241333 947.74843842 -265.53982666 947.80937683 -266.26867676 947.87216187 C-284.0240773 949.37802914 -301.72523666 950.16033142 -319.54296875 950.16796875 C-321.36729455 950.17120065 -323.19162011 950.17456597 -325.01594543 950.17805481 C-328.81687009 950.18398642 -332.61777223 950.18590117 -336.41870117 950.18530273 C-340.24134091 950.18522192 -344.06385967 950.19210353 -347.88647461 950.20581055 C-371.34253889 950.2885405 -394.61442564 949.94487839 -418 948 C-419.37875809 947.88644669 -419.37875809 947.88644669 -420.78536987 947.77059937 C-425.8251248 947.34268351 -430.85080987 946.83163974 -435.875 946.25 C-436.96742004 946.12594788 -436.96742004 946.12594788 -438.08190918 945.99938965 C-495.00246692 939.46871913 -558.80916769 926.2536323 -604 889 C-604.5249707 888.57364258 -605.04994141 888.14728516 -605.59082031 887.70800781 C-632.83395865 865.54004111 -653.63196178 836.63114456 -658 801 C-658.65644435 791.62114463 -658.54749281 782.20987662 -658.50823963 772.81313467 C-658.49698663 769.05284189 -658.50911946 765.29260712 -658.51808167 761.53231812 C-658.53192329 754.18978581 -658.5245241 746.84742699 -658.50940608 739.50490314 C-658.49241934 730.92282268 -658.49577244 722.34078394 -658.49950016 713.75869185 C-658.50536289 698.42210101 -658.49127365 683.08559255 -658.46655273 667.74902344 C-658.44267034 652.9306326 -658.43553747 638.11235194 -658.44604492 623.29394531 C-658.45750891 607.09792476 -658.45931441 590.90195501 -658.44494683 574.705935 C-658.44342127 572.97150326 -658.44190091 571.23707152 -658.44038582 569.50263977 C-658.439628 568.64964136 -658.43887019 567.79664295 -658.43808941 566.91779611 C-658.43338606 560.96355611 -658.43516988 555.0093391 -658.43945122 549.05509949 C-658.44442881 541.77296133 -658.4381718 534.49092638 -658.41855692 527.20881158 C-658.40882539 523.50714832 -658.40342182 519.80564061 -658.41144943 516.10396957 C-658.5070096 466.66653481 -651.03106455 421.0601211 -616 384 C-615.25363281 383.18917969 -614.50726562 382.37835937 -613.73828125 381.54296875 C-602.60891738 369.8617356 -589.2511013 361.37039651 -575 354 C-574.39752441 353.68579102 -573.79504883 353.37158203 -573.17431641 353.04785156 C-547.57050573 339.88419142 -517.57622768 332.84618409 -488.87034607 332.85523987 C-486.89604468 332.8499496 -486.89604468 332.8499496 -484.88185841 332.84455246 C-481.24286763 332.83490022 -477.60389254 332.8313114 -473.96489084 332.82870948 C-470.03324223 332.82480078 -466.10160729 332.81516327 -462.16996765 332.80615234 C-455.35591856 332.79123227 -448.54187054 332.77967813 -441.72781181 332.77020454 C-431.84214423 332.75628449 -421.95650184 332.73508648 -412.07085241 332.71177601 C-395.98628716 332.6738657 -379.90171729 332.63891109 -363.81713867 332.60717773 C-362.85485389 332.60527724 -361.89256911 332.60337675 -360.90112419 332.60141867 C-347.29284618 332.57467679 -333.68456466 332.55077977 -320.07627947 332.52803367 C-319.12096808 332.52643637 -318.1656567 332.52483906 -317.18139648 332.52319336 C-316.22726521 332.52159989 -315.27313394 332.52000643 -314.2900896 332.51836468 C-298.29208275 332.49145093 -282.29410234 332.45698636 -266.29612404 332.41653961 C-256.45790478 332.39196297 -246.61971374 332.37352675 -236.78146882 332.363384 C-230.01131985 332.35590384 -223.24120883 332.34124721 -216.47108518 332.32131977 C-212.58473847 332.31010372 -208.69845237 332.30178268 -204.81208801 332.30232811 C-189.59470707 332.3023017 -174.42881077 332.06977175 -159.2379303 331.11778259 C-157.9974114 331.04204752 -156.7568925 330.96631244 -155.47878212 330.88828236 C-120.80908019 328.49318631 -86.58503377 316.81809901 -60 294 C-59.16726563 293.28972656 -58.33453125 292.57945312 -57.4765625 291.84765625 C-28.39791462 266.39265526 -11.78553884 229.55187123 -4.75 192.0625 C-4.52328613 190.86874756 -4.52328613 190.86874756 -4.29199219 189.65087891 C-0.60323772 168.41347874 -0.66221442 147.03616732 -0.59528303 125.56207252 C-0.57944441 121.13385859 -0.55272273 116.70570922 -0.5272522 112.27754211 C-0.48082563 103.92718108 -0.44390911 95.5768074 -0.41057932 87.22638494 C-0.3720995 77.70487792 -0.32275892 68.18343631 -0.27259517 58.6619848 C-0.16981391 39.10803801 -0.08038201 19.55405107 0 0 Z M-207 752 C-207.65226562 752.43828125 -208.30453125 752.8765625 -208.9765625 753.328125 C-219.16103024 761.04785854 -225.28140033 773.82022527 -228 786 C-229.41696385 802.68108477 -227.03208592 816.28580782 -217 830 C-216.52691406 830.65742187 -216.05382812 831.31484375 -215.56640625 831.9921875 C-207.4005936 842.40186368 -194.27745213 848.59526981 -181.4140625 850.71875 C-167.4520647 852.34539052 -152.81754636 849.32884868 -141.42822266 840.82666016 C-129.63051868 831.39643669 -121.38834654 819.11131411 -119 804 C-117.86468242 787.34247153 -121.21815159 772.59371676 -132.1015625 759.46484375 C-137.11264554 754.16159509 -142.54038561 750.34753393 -149 747 C-149.74121094 746.60941406 -150.48242188 746.21882813 -151.24609375 745.81640625 C-169.68220998 736.84482028 -190.62660188 740.61419085 -207 752 Z " fill="#FFD242" transform="translate(988,321)" />
</svg>