<svg width="561" height="122" viewBox="0 0 561 122" fill="none" xmlns="http://www.w3.org/2000/svg">
<rect x="0.512421" width="560.488" height="121.165" rx="60.5824" fill="url(#paint0_linear_2_81)"/>
<rect x="5" y="4" width="551" height="113" rx="56.5" fill="#161515"/>
<path d="M51.62 75.92H60.68V53.12H51.62V49.04H65.48V56.84H65.78C66.42 54.4 67.62 52.5 69.38 51.14C71.18 49.74 73.46 49.04 76.22 49.04H80.54V53.84H74.72C71.96 53.84 69.72 54.64 68 56.24C66.32 57.84 65.48 59.94 65.48 62.54V75.92H77.48V80H51.62V75.92ZM100.977 80.72C98.8166 80.72 96.8566 80.34 95.0966 79.58C93.3766 78.82 91.8966 77.74 90.6566 76.34C89.4566 74.9 88.5366 73.2 87.8966 71.24C87.2566 69.24 86.9366 67 86.9366 64.52C86.9366 62.08 87.2566 59.86 87.8966 57.86C88.5366 55.86 89.4566 54.16 90.6566 52.76C91.8966 51.32 93.3766 50.22 95.0966 49.46C96.8566 48.7 98.8166 48.32 100.977 48.32C103.137 48.32 105.077 48.7 106.797 49.46C108.557 50.22 110.037 51.32 111.237 52.76C112.477 54.16 113.417 55.86 114.057 57.86C114.697 59.86 115.017 62.08 115.017 64.52C115.017 67 114.697 69.24 114.057 71.24C113.417 73.2 112.477 74.9 111.237 76.34C110.037 77.74 108.557 78.82 106.797 79.58C105.077 80.34 103.137 80.72 100.977 80.72ZM100.977 76.58C103.657 76.58 105.817 75.78 107.457 74.18C109.097 72.58 109.917 70.1 109.917 66.74V62.3C109.917 58.94 109.097 56.46 107.457 54.86C105.817 53.26 103.657 52.46 100.977 52.46C98.2966 52.46 96.1366 53.26 94.4966 54.86C92.8566 56.46 92.0366 58.94 92.0366 62.3V66.74C92.0366 70.1 92.8566 72.58 94.4966 74.18C96.1366 75.78 98.2966 76.58 100.977 76.58ZM124.833 35.6H129.633V54.08H129.873C130.193 53.32 130.593 52.6 131.073 51.92C131.553 51.2 132.133 50.58 132.813 50.06C133.533 49.54 134.373 49.12 135.333 48.8C136.293 48.48 137.413 48.32 138.693 48.32C141.933 48.32 144.533 49.36 146.493 51.44C148.453 53.48 149.433 56.38 149.433 60.14V80H144.633V60.98C144.633 58.14 144.013 56.04 142.773 54.68C141.533 53.28 139.713 52.58 137.313 52.58C136.353 52.58 135.413 52.7 134.493 52.94C133.573 53.18 132.753 53.54 132.033 54.02C131.313 54.5 130.733 55.12 130.293 55.88C129.853 56.64 129.633 57.52 129.633 58.52V80H124.833V35.6ZM180.43 74.96H180.19C178.19 78.8 175.01 80.72 170.65 80.72C166.85 80.72 163.87 79.3 161.71 76.46C159.59 73.62 158.53 69.64 158.53 64.52C158.53 59.4 159.59 55.42 161.71 52.58C163.87 49.74 166.85 48.32 170.65 48.32C175.01 48.32 178.19 50.24 180.19 54.08H180.43V49.04H185.23V80H180.43V74.96ZM172.51 76.46C173.59 76.46 174.61 76.32 175.57 76.04C176.53 75.76 177.37 75.36 178.09 74.84C178.81 74.28 179.37 73.62 179.77 72.86C180.21 72.06 180.43 71.14 180.43 70.1V58.94C180.43 57.9 180.21 57 179.77 56.24C179.37 55.44 178.81 54.78 178.09 54.26C177.37 53.7 176.53 53.28 175.57 53C174.61 52.72 173.59 52.58 172.51 52.58C169.71 52.58 167.53 53.44 165.97 55.16C164.45 56.84 163.69 59.08 163.69 61.88V67.16C163.69 69.96 164.45 72.22 165.97 73.94C167.53 75.62 169.71 76.46 172.51 76.46ZM196.786 80V49.04H201.586V54.08H201.826C202.146 53.32 202.546 52.6 203.026 51.92C203.506 51.2 204.086 50.58 204.766 50.06C205.486 49.54 206.326 49.12 207.286 48.8C208.246 48.48 209.366 48.32 210.646 48.32C213.886 48.32 216.486 49.36 218.446 51.44C220.406 53.48 221.386 56.38 221.386 60.14V80H216.586V60.98C216.586 58.14 215.966 56.04 214.726 54.68C213.486 53.28 211.666 52.58 209.266 52.58C208.306 52.58 207.366 52.7 206.446 52.94C205.526 53.18 204.706 53.54 203.986 54.02C203.266 54.5 202.686 55.12 202.246 55.88C201.806 56.64 201.586 57.52 201.586 58.52V80H196.786ZM244.883 80.54C243.243 80.54 242.083 80.2 241.403 79.52C240.763 78.84 240.443 77.98 240.443 76.94V75.86C240.443 74.82 240.763 73.96 241.403 73.28C242.083 72.6 243.243 72.26 244.883 72.26C246.523 72.26 247.663 72.6 248.303 73.28C248.983 73.96 249.323 74.82 249.323 75.86V76.94C249.323 77.98 248.983 78.84 248.303 79.52C247.663 80.2 246.523 80.54 244.883 80.54ZM268.979 87.92H283.979V53.12H268.439V49.04H288.779V84.92C288.779 87 288.219 88.7 287.099 90.02C286.019 91.34 284.299 92 281.939 92H268.979V87.92ZM286.379 42.2C284.979 42.2 283.999 41.92 283.439 41.36C282.879 40.76 282.599 40.02 282.599 39.14V38.18C282.599 37.3 282.879 36.58 283.439 36.02C283.999 35.42 284.979 35.12 286.379 35.12C287.779 35.12 288.759 35.42 289.319 36.02C289.879 36.58 290.159 37.3 290.159 38.18V39.14C290.159 40.02 289.879 40.76 289.319 41.36C288.759 41.92 287.779 42.2 286.379 42.2ZM316.836 80.72C314.676 80.72 312.716 80.34 310.956 79.58C309.236 78.82 307.756 77.74 306.516 76.34C305.316 74.9 304.396 73.2 303.756 71.24C303.116 69.24 302.796 67 302.796 64.52C302.796 62.08 303.116 59.86 303.756 57.86C304.396 55.86 305.316 54.16 306.516 52.76C307.756 51.32 309.236 50.22 310.956 49.46C312.716 48.7 314.676 48.32 316.836 48.32C318.996 48.32 320.936 48.7 322.656 49.46C324.416 50.22 325.896 51.32 327.096 52.76C328.336 54.16 329.276 55.86 329.916 57.86C330.556 59.86 330.876 62.08 330.876 64.52C330.876 67 330.556 69.24 329.916 71.24C329.276 73.2 328.336 74.9 327.096 76.34C325.896 77.74 324.416 78.82 322.656 79.58C320.936 80.34 318.996 80.72 316.836 80.72ZM316.836 76.58C319.516 76.58 321.676 75.78 323.316 74.18C324.956 72.58 325.776 70.1 325.776 66.74V62.3C325.776 58.94 324.956 56.46 323.316 54.86C321.676 53.26 319.516 52.46 316.836 52.46C314.156 52.46 311.996 53.26 310.356 54.86C308.716 56.46 307.896 58.94 307.896 62.3V66.74C307.896 70.1 308.716 72.58 310.356 74.18C311.996 75.78 314.156 76.58 316.836 76.58ZM353.173 80.72C349.933 80.72 347.133 80.18 344.773 79.1C342.453 77.98 340.473 76.5 338.833 74.66L342.073 71.84C343.553 73.4 345.173 74.6 346.933 75.44C348.693 76.28 350.813 76.7 353.293 76.7C355.693 76.7 357.653 76.28 359.173 75.44C360.733 74.56 361.513 73.2 361.513 71.36C361.513 70.56 361.353 69.9 361.033 69.38C360.753 68.82 360.353 68.38 359.833 68.06C359.313 67.74 358.733 67.5 358.093 67.34C357.453 67.14 356.773 66.98 356.053 66.86L351.193 66.14C350.113 65.98 348.933 65.76 347.653 65.48C346.413 65.2 345.273 64.76 344.233 64.16C343.193 63.52 342.313 62.68 341.593 61.64C340.913 60.6 340.573 59.24 340.573 57.56C340.573 56 340.873 54.66 341.473 53.54C342.113 52.38 342.993 51.42 344.113 50.66C345.233 49.86 346.553 49.28 348.073 48.92C349.593 48.52 351.253 48.32 353.053 48.32C355.853 48.32 358.273 48.76 360.313 49.64C362.393 50.52 364.173 51.74 365.652 53.3L362.533 56.24C362.173 55.8 361.713 55.36 361.153 54.92C360.633 54.44 359.973 54.02 359.173 53.66C358.413 53.26 357.513 52.94 356.473 52.7C355.433 52.46 354.233 52.34 352.873 52.34C350.433 52.34 348.553 52.76 347.233 53.6C345.953 54.44 345.313 55.66 345.313 57.26C345.313 58.06 345.453 58.74 345.733 59.3C346.053 59.82 346.473 60.24 346.993 60.56C347.513 60.88 348.093 61.14 348.733 61.34C349.413 61.5 350.093 61.64 350.773 61.76L355.633 62.48C356.753 62.64 357.933 62.86 359.173 63.14C360.413 63.42 361.553 63.88 362.593 64.52C363.633 65.12 364.493 65.94 365.173 66.98C365.893 68.02 366.253 69.38 366.253 71.06C366.253 74.14 365.053 76.52 362.653 78.2C360.293 79.88 357.133 80.72 353.173 80.72ZM376.669 35.6H381.469V54.08H381.709C382.029 53.32 382.429 52.6 382.909 51.92C383.389 51.2 383.969 50.58 384.649 50.06C385.369 49.54 386.209 49.12 387.169 48.8C388.129 48.48 389.249 48.32 390.529 48.32C393.769 48.32 396.369 49.36 398.329 51.44C400.289 53.48 401.269 56.38 401.269 60.14V80H396.469V60.98C396.469 58.14 395.849 56.04 394.609 54.68C393.369 53.28 391.549 52.58 389.149 52.58C388.189 52.58 387.249 52.7 386.329 52.94C385.409 53.18 384.589 53.54 383.869 54.02C383.149 54.5 382.569 55.12 382.129 55.88C381.689 56.64 381.469 57.52 381.469 58.52V80H376.669V35.6ZM426.686 42.2C425.286 42.2 424.306 41.92 423.746 41.36C423.186 40.76 422.906 40.02 422.906 39.14V38.18C422.906 37.3 423.186 36.58 423.746 36.02C424.306 35.42 425.286 35.12 426.686 35.12C428.086 35.12 429.066 35.42 429.626 36.02C430.186 36.58 430.466 37.3 430.466 38.18V39.14C430.466 40.02 430.186 40.76 429.626 41.36C429.066 41.92 428.086 42.2 426.686 42.2ZM413.126 75.92H424.286V53.12H413.126V49.04H429.086V75.92H439.526V80H413.126V75.92ZM455.042 61.34C455.042 58.42 455.362 55.62 456.002 52.94C456.682 50.22 457.582 47.7 458.702 45.38C459.862 43.06 461.202 40.98 462.722 39.14C464.242 37.26 465.842 35.68 467.522 34.4H472.382C470.622 35.72 468.962 37.26 467.402 39.02C465.882 40.74 464.522 42.64 463.322 44.72C462.162 46.76 461.242 48.98 460.562 51.38C459.882 53.74 459.542 56.2 459.542 58.76V63.92C459.542 66.48 459.882 68.96 460.562 71.36C461.242 73.72 462.162 75.94 463.322 78.02C464.522 80.06 465.882 81.94 467.402 83.66C468.962 85.42 470.622 86.96 472.382 88.28H467.522C465.842 87.04 464.242 85.48 462.722 83.6C461.202 81.72 459.862 79.62 458.702 77.3C457.582 74.98 456.682 72.48 456.002 69.8C455.362 67.08 455.042 64.26 455.042 61.34ZM502.419 61.34C502.419 64.26 502.079 67.08 501.399 69.8C500.759 72.48 499.859 74.98 498.699 77.3C497.579 79.62 496.259 81.72 494.739 83.6C493.219 85.48 491.619 87.04 489.939 88.28H485.079C486.799 86.96 488.439 85.42 489.999 83.66C491.559 81.94 492.919 80.06 494.079 78.02C495.279 75.94 496.219 73.72 496.899 71.36C497.579 68.96 497.919 66.48 497.919 63.92V58.76C497.919 56.2 497.579 53.74 496.899 51.38C496.219 48.98 495.279 46.76 494.079 44.72C492.919 42.64 491.559 40.74 489.999 39.02C488.439 37.26 486.799 35.72 485.079 34.4H489.939C491.619 35.68 493.219 37.26 494.739 39.14C496.259 40.98 497.579 43.06 498.699 45.38C499.859 47.7 500.759 50.22 501.399 52.94C502.079 55.62 502.419 58.42 502.419 61.34Z" fill="white"/>
<defs>
<linearGradient id="paint0_linear_2_81" x1="-292.937" y1="-125.805" x2="251.397" y2="411.485" gradientUnits="userSpaceOnUse">
<stop stop-color="#0C0C0C"/>
<stop offset="0.31" stop-color="#2F2F2F" stop-opacity="0.8"/>
<stop offset="1" stop-color="#3F3D3D" stop-opacity="0"/>
</linearGradient>
</defs>
</svg>
