<svg width="100" height="100" viewBox="0 0 100 100" fill="none" xmlns="http://www.w3.org/2000/svg">
<rect width="100" height="100" rx="10" fill="#9D96F9"/>
<path d="M36.7521 95V58.6364H51.7734C54.496 58.6364 56.8456 59.1276 58.8224 60.1101C60.8111 61.0807 62.344 62.4775 63.4212 64.3004C64.4983 66.1115 65.0369 68.2599 65.0369 70.7457C65.0369 73.267 64.4865 75.4096 63.3857 77.1733C62.2848 78.9252 60.7223 80.2628 58.6982 81.1861C56.674 82.0975 54.277 82.5533 51.5071 82.5533H42.0078V75.6286H49.8736C51.1993 75.6286 52.3061 75.4569 53.1939 75.1136C54.0935 74.7585 54.7741 74.2259 55.2358 73.5156C55.6974 72.7936 55.9283 71.8703 55.9283 70.7457C55.9283 69.6212 55.6974 68.692 55.2358 67.9581C54.7741 67.2124 54.0935 66.656 53.1939 66.2891C52.2943 65.9103 51.1875 65.7209 49.8736 65.7209H45.5412V95H36.7521ZM57.2244 78.3807L66.2798 95H56.6918L47.8139 78.3807H57.2244ZM84.6303 58.6364H93.2951V83.7784C93.2833 86.134 92.721 88.1937 91.6083 89.9574C90.4956 91.7093 88.9568 93.0705 86.9918 94.0412C85.0387 95.0118 82.7778 95.4972 80.2092 95.4972C77.9364 95.4972 75.8709 95.1006 74.0124 94.3075C72.1658 93.5144 70.6921 92.2834 69.5913 90.6143C68.5022 88.9453 67.9637 86.8087 67.9755 84.2045H76.729C76.7646 85.1397 76.9421 85.9387 77.2617 86.6016C77.5932 87.2526 78.0489 87.7438 78.6289 88.0753C79.2089 88.4067 79.9014 88.5724 80.7063 88.5724C81.5468 88.5724 82.257 88.3949 82.837 88.0398C83.417 87.6728 83.855 87.1342 84.1509 86.424C84.4587 85.7138 84.6185 84.8319 84.6303 83.7784V58.6364Z" fill="black"/>
</svg>
