<svg width="108" height="108" viewBox="0 0 108 108" fill="none" xmlns="http://www.w3.org/2000/svg">
<g filter="url(#filter0_d_2_16)">
<rect x="4" width="100" height="100" rx="10" fill="#9D96F9"/>
<path d="M40.7521 95V58.6364H55.7734C58.496 58.6364 60.8456 59.1276 62.8224 60.1101C64.8111 61.0807 66.344 62.4775 67.4212 64.3004C68.4983 66.1115 69.0369 68.2599 69.0369 70.7457C69.0369 73.267 68.4865 75.4096 67.3857 77.1733C66.2848 78.9252 64.7223 80.2628 62.6982 81.1861C60.674 82.0975 58.277 82.5533 55.5071 82.5533H46.0078V75.6286H53.8736C55.1993 75.6286 56.3061 75.4569 57.1939 75.1136C58.0935 74.7585 58.7741 74.2259 59.2358 73.5156C59.6974 72.7936 59.9283 71.8703 59.9283 70.7457C59.9283 69.6212 59.6974 68.692 59.2358 67.9581C58.7741 67.2124 58.0935 66.656 57.1939 66.2891C56.2943 65.9103 55.1875 65.7209 53.8736 65.7209H49.5412V95H40.7521ZM61.2244 78.3807L70.2798 95H60.6918L51.8139 78.3807H61.2244ZM88.6303 58.6364H97.2951V83.7784C97.2833 86.134 96.721 88.1937 95.6083 89.9574C94.4956 91.7093 92.9568 93.0705 90.9918 94.0412C89.0387 95.0118 86.7778 95.4972 84.2092 95.4972C81.9364 95.4972 79.8709 95.1006 78.0124 94.3075C76.1658 93.5144 74.6921 92.2834 73.5913 90.6143C72.5022 88.9453 71.9637 86.8087 71.9755 84.2045H80.729C80.7646 85.1397 80.9421 85.9387 81.2617 86.6016C81.5932 87.2526 82.0489 87.7438 82.6289 88.0753C83.2089 88.4067 83.9014 88.5724 84.7063 88.5724C85.5468 88.5724 86.257 88.3949 86.837 88.0398C87.417 87.6728 87.855 87.1342 88.1509 86.424C88.4587 85.7138 88.6185 84.8319 88.6303 83.7784V58.6364Z" fill="black"/>
</g>
<defs>
<filter id="filter0_d_2_16" x="0" y="0" width="108" height="108" filterUnits="userSpaceOnUse" color-interpolation-filters="sRGB">
<feFlood flood-opacity="0" result="BackgroundImageFix"/>
<feColorMatrix in="SourceAlpha" type="matrix" values="0 0 0 0 0 0 0 0 0 0 0 0 0 0 0 0 0 0 127 0" result="hardAlpha"/>
<feOffset dy="4"/>
<feGaussianBlur stdDeviation="2"/>
<feComposite in2="hardAlpha" operator="out"/>
<feColorMatrix type="matrix" values="0 0 0 0 0 0 0 0 0 0 0 0 0 0 0 0 0 0 0.25 0"/>
<feBlend mode="normal" in2="BackgroundImageFix" result="effect1_dropShadow_2_16"/>
<feBlend mode="normal" in="SourceGraphic" in2="effect1_dropShadow_2_16" result="shape"/>
</filter>
</defs>
</svg>
