<?xml version="1.0" encoding="UTF-8"?>
<!DOCTYPE svg PUBLIC "-//W3C//DTD SVG 1.1//EN" "http://www.w3.org/Graphics/SVG/1.1/DTD/svg11.dtd">
<svg xmlns="http://www.w3.org/2000/svg" version="1.1" width="350px" height="350px" style="shape-rendering:geometricPrecision; text-rendering:geometricPrecision; image-rendering:optimizeQuality; fill-rule:evenodd; clip-rule:evenodd" xmlns:xlink="http://www.w3.org/1999/xlink">
<g><path style="opacity:0.918" fill="#089cec" d="M 156.5,63.5 C 167.505,63.3335 178.505,63.5002 189.5,64C 190.833,74.3333 190.833,84.6667 189.5,95C 178.505,95.4998 167.505,95.6665 156.5,95.5C 156.5,84.8333 156.5,74.1667 156.5,63.5 Z"/></g>
<g><path style="opacity:0.886" fill="#089beb" d="M 79.5,99.5 C 90.8333,99.5 102.167,99.5 113.5,99.5C 113.5,109.833 113.5,120.167 113.5,130.5C 102.162,130.667 90.8284,130.5 79.5,130C 78.1782,119.833 78.1782,109.667 79.5,99.5 Z"/></g>
<g><path style="opacity:0.931" fill="#089beb" d="M 117.5,99.5 C 128.833,99.5 140.167,99.5 151.5,99.5C 151.5,109.833 151.5,120.167 151.5,130.5C 140.167,130.5 128.833,130.5 117.5,130.5C 117.5,120.167 117.5,109.833 117.5,99.5 Z"/></g>
<g><path style="opacity:0.911" fill="#089beb" d="M 156.5,99.5 C 167.833,99.5 179.167,99.5 190.5,99.5C 190.5,109.833 190.5,120.167 190.5,130.5C 179.167,130.5 167.833,130.5 156.5,130.5C 156.5,120.167 156.5,109.833 156.5,99.5 Z"/></g>
<g><path style="opacity:0.983" fill="#099bec" d="M 261.5,108.5 C 274.537,114.876 283.704,124.876 289,138.5C 289.494,140.134 289.66,141.801 289.5,143.5C 298.891,143.147 308.225,143.647 317.5,145C 323.293,146.728 328.293,149.728 332.5,154C 323.782,176.849 307.116,187.349 282.5,185.5C 261.386,235.433 224.386,266.933 171.5,280C 141.461,287.185 111.461,287.185 81.5,280C 47.9076,268.32 27.0743,245.153 19,210.5C 16.4017,197.572 15.9017,184.572 17.5,171.5C 92.1674,171.667 166.834,171.5 241.5,171C 246.09,170.185 250.423,168.685 254.5,166.5C 250.387,159.618 248.387,152.118 248.5,144C 248.979,137.367 250.146,130.867 252,124.5C 254.926,118.974 258.093,113.641 261.5,108.5 Z"/></g>
<g><path style="opacity:0.905" fill="#099beb" d="M 40.5,135.5 C 52.1667,135.5 63.8333,135.5 75.5,135.5C 75.5,145.5 75.5,155.5 75.5,165.5C 63.8333,165.5 52.1667,165.5 40.5,165.5C 40.5,155.5 40.5,145.5 40.5,135.5 Z"/></g>
<g><path style="opacity:0.905" fill="#089beb" d="M 78.5,135.5 C 90.1667,135.5 101.833,135.5 113.5,135.5C 113.5,145.5 113.5,155.5 113.5,165.5C 102.162,165.667 90.8284,165.5 79.5,165C 78.5144,155.25 78.181,145.416 78.5,135.5 Z"/></g>
<g><path style="opacity:0.953" fill="#089beb" d="M 117.5,135.5 C 128.833,135.5 140.167,135.5 151.5,135.5C 151.5,145.5 151.5,155.5 151.5,165.5C 140.167,165.5 128.833,165.5 117.5,165.5C 117.5,155.5 117.5,145.5 117.5,135.5 Z"/></g>
<g><path style="opacity:0.929" fill="#089beb" d="M 156.5,135.5 C 167.833,135.5 179.167,135.5 190.5,135.5C 190.5,145.5 190.5,155.5 190.5,165.5C 179.167,165.5 167.833,165.5 156.5,165.5C 156.5,155.5 156.5,145.5 156.5,135.5 Z"/></g>
<g><path style="opacity:0.929" fill="#089beb" d="M 194.5,135.5 C 205.833,135.5 217.167,135.5 228.5,135.5C 228.5,145.5 228.5,155.5 228.5,165.5C 217.167,165.5 205.833,165.5 194.5,165.5C 194.5,155.5 194.5,145.5 194.5,135.5 Z"/></g>
</svg>
