<?xml version="1.0" encoding="UTF-8"?>
<!DOCTYPE svg PUBLIC "-//W3C//DTD SVG 1.1//EN" "http://www.w3.org/Graphics/SVG/1.1/DTD/svg11.dtd">
<svg xmlns="http://www.w3.org/2000/svg" version="1.1" width="1366px" height="2048px" style="shape-rendering:geometricPrecision; text-rendering:geometricPrecision; image-rendering:optimizeQuality; fill-rule:evenodd; clip-rule:evenodd" xmlns:xlink="http://www.w3.org/1999/xlink">
<g><path style="opacity:1" fill="#f24e1e" d="M 311.5,-0.5 C 435.167,-0.5 558.833,-0.5 682.5,-0.5C 682.5,226.833 682.5,454.167 682.5,681.5C 563.999,681.167 445.665,681.5 327.5,682.5C 323.5,682.5 319.5,682.5 315.5,682.5C 200.556,670.303 111.723,615.969 49,519.5C 21.1534,472.795 4.6534,422.462 -0.5,368.5C -0.5,350.167 -0.5,331.833 -0.5,313.5C 13.4776,190.684 74.1443,98.8505 181.5,38C 222.445,16.9614 265.778,4.12809 311.5,-0.5 Z"/></g>
<g><path style="opacity:1" fill="#fe7161" d="M 682.5,-0.5 C 805.833,-0.5 929.167,-0.5 1052.5,-0.5C 1162.66,11.5628 1248.83,63.2295 1311,154.5C 1342.21,203.007 1360.38,256.007 1365.5,313.5C 1365.5,331.5 1365.5,349.5 1365.5,367.5C 1353.67,479.369 1301.34,566.536 1208.5,629C 1159.45,659.76 1106.11,677.593 1048.5,682.5C 1030.19,681.525 1011.53,681.525 992.5,682.5C 889.5,682.5 786.5,682.5 683.5,682.5C 564.833,682.5 446.167,682.5 327.5,682.5C 445.665,681.5 563.999,681.167 682.5,681.5C 682.5,454.167 682.5,226.833 682.5,-0.5 Z"/></g>
<g><path style="opacity:0.997" fill="#a159ff" d="M 315.5,682.5 C 319.5,682.5 323.5,682.5 327.5,682.5C 446.167,682.5 564.833,682.5 683.5,682.5C 683.5,783.833 683.5,885.167 683.5,986.5C 682.167,1011.17 682.167,1035.83 683.5,1060.5C 683.833,1162 683.499,1263.33 682.5,1364.5C 560.167,1364.5 437.833,1364.5 315.5,1364.5C 200.968,1353.02 112.468,1299.35 50,1203.5C 21.6156,1156.29 4.78224,1105.29 -0.5,1050.5C -0.5,1032.5 -0.5,1014.5 -0.5,996.5C 12.4532,879.373 68.7865,789.873 168.5,728C 213.971,701.547 262.971,686.38 315.5,682.5 Z"/></g>
<g><path style="opacity:1" fill="#1abcfd" d="M 1048.5,682.5 C 1165.77,694.017 1255.6,749.351 1318,848.5C 1344.95,894.291 1360.78,943.625 1365.5,996.5C 1365.5,1014.5 1365.5,1032.5 1365.5,1050.5C 1351.83,1171.62 1292.49,1262.79 1187.5,1324C 1094.94,1371.88 999.61,1378.21 901.5,1343C 823.273,1312.1 763.773,1259.93 723,1186.5C 701.843,1146.87 688.677,1104.87 683.5,1060.5C 682.167,1035.83 682.167,1011.17 683.5,986.5C 699.477,871.425 757.144,784.259 856.5,725C 899.063,701.534 944.396,687.367 992.5,682.5C 1011.53,681.525 1030.19,681.525 1048.5,682.5 Z"/></g>
<g><path style="opacity:0.999" fill="#0ace83" d="M 315.5,1364.5 C 437.833,1364.5 560.167,1364.5 682.5,1364.5C 683.481,1482.08 683.815,1599.08 683.5,1715.5C 677.048,1827.92 629.048,1917.76 539.5,1985C 488.363,2020.73 431.697,2041.56 369.5,2047.5C 350.5,2047.5 331.5,2047.5 312.5,2047.5C 188.361,2032.7 96.1941,1970.7 36,1861.5C 15.9765,1820.95 3.80981,1778.28 -0.5,1733.5C -0.5,1715.17 -0.5,1696.83 -0.5,1678.5C 11.6172,1567.05 63.9506,1480.21 156.5,1418C 205.25,1387.4 258.25,1369.57 315.5,1364.5 Z"/></g>
</svg>
