<svg xmlns="http://www.w3.org/2000/svg" version="1.1" style="shape-rendering:geometricPrecision; text-rendering:geometricPrecision; image-rendering:optimizeQuality; fill-rule:evenodd; clip-rule:evenodd" xmlns:xlink="http://www.w3.org/1999/xlink" viewBox="377.48 -0.5 382.03 394"><g><path style="opacity:0.979" fill="#fdfdfd" d="M 608.5,-0.5 C 620.5,-0.5 632.5,-0.5 644.5,-0.5C 651.805,1.25993 658.805,4.09327 665.5,8C 690.833,25.6667 716.167,43.3333 741.5,61C 750.133,66.7742 755.967,74.6076 759,84.5C 759.667,171.167 759.667,257.833 759,344.5C 754.195,364.97 741.361,376.803 720.5,380C 649.672,384.427 579.005,388.927 508.5,393.5C 494.833,393.5 481.167,393.5 467.5,393.5C 456.411,390.602 447.244,384.602 440,375.5C 423.383,353.214 406.383,331.214 389,309.5C 383.971,301.774 380.304,293.441 378,284.5C 377.333,206.167 377.333,127.833 378,49.5C 383.74,28.7574 397.24,16.9241 418.5,14C 482.012,9.48614 545.346,4.6528 608.5,-0.5 Z"></path></g><g><path style="opacity:1" fill="#040404" d="M 616.5,22.5 C 629.022,21.2216 641.022,23.0549 652.5,28C 676.5,44.6667 700.5,61.3333 724.5,78C 729,81.1667 732.833,85 736,89.5C 736.667,171.833 736.667,254.167 736,336.5C 735.525,344.635 731.691,350.469 724.5,354C 719.351,355.916 714.017,356.916 708.5,357C 633.342,361.602 558.176,366.102 483,370.5C 473.995,371.504 466.329,368.837 460,362.5C 443,340.5 426,318.5 409,296.5C 404.771,290.482 402.104,283.816 401,276.5C 400.009,201.443 400.343,126.443 402,51.5C 404.568,44.5993 409.402,40.0993 416.5,38C 483.376,33.4485 550.043,28.2818 616.5,22.5 Z"></path></g><g><path style="opacity:1" fill="#fcfcfc" d="M 610.5,42.5 C 621.97,41.876 633.304,42.7094 644.5,45C 659.918,54.9322 674.584,65.7655 688.5,77.5C 686.234,78.3142 683.9,78.8142 681.5,79C 611.521,83.4838 541.521,87.4838 471.5,91C 468.382,89.9413 465.382,88.6079 462.5,87C 453.167,79.6667 443.833,72.3333 434.5,65C 429.291,61.7912 429.291,58.7912 434.5,56C 493.348,51.754 552.015,47.254 610.5,42.5 Z"></path></g><g><path style="opacity:1" fill="#fdfdfd" d="M 676.5,102.5 C 687.172,102.333 697.839,102.5 708.5,103C 710.617,104.731 712.117,106.898 713,109.5C 713.667,179.833 713.667,250.167 713,320.5C 712.434,325.397 709.934,328.897 705.5,331C 632.867,336.064 560.201,340.564 487.5,344.5C 479.685,345.513 474.185,342.513 471,335.5C 470.333,263.833 470.333,192.167 471,120.5C 472.251,117.619 474.417,115.786 477.5,115C 544.028,111.392 610.361,107.226 676.5,102.5 Z"></path></g><g><path style="opacity:1" fill="#020202" d="M 664.5,153.5 C 662.505,202.822 661.838,252.489 662.5,302.5C 653.342,308.123 643.342,310.623 632.5,310C 627.504,308.014 623.337,304.847 620,300.5C 596.943,264.95 574.11,229.283 551.5,193.5C 551.44,192.957 551.107,192.624 550.5,192.5C 549.17,226.331 549.17,259.998 550.5,293.5C 557.409,295.202 564.409,296.536 571.5,297.5C 570.473,304.363 566.473,308.53 559.5,310C 542.157,310.744 524.824,311.577 507.5,312.5C 506.814,308.713 507.814,305.546 510.5,303C 515.111,301.512 519.778,300.346 524.5,299.5C 524.5,254.833 524.5,210.167 524.5,165.5C 518.879,164.646 513.212,164.313 507.5,164.5C 506.331,157.337 508.998,152.171 515.5,149C 531.823,147.683 548.156,146.516 564.5,145.5C 566.5,145.833 568.5,146.167 570.5,146.5C 592.844,180.528 615.177,214.528 637.5,248.5C 637.783,249.289 638.283,249.956 639,250.5C 639.5,219.168 639.667,187.835 639.5,156.5C 637.833,156.5 636.167,156.5 634.5,156.5C 630.176,156.073 625.842,155.739 621.5,155.5C 620.448,148.769 623.114,144.269 629.5,142C 646.144,140.653 662.811,139.82 679.5,139.5C 679.804,143.215 679.137,146.715 677.5,150C 673.216,151.357 668.883,152.523 664.5,153.5 Z"></path></g><g><path style="opacity:1" fill="#aeaeae" d="M 664.5,153.5 C 663.838,203.264 663.171,252.931 662.5,302.5C 661.838,252.489 662.505,202.822 664.5,153.5 Z"></path></g><g><path style="opacity:1" fill="#6d6d6d" d="M 634.5,156.5 C 636.167,156.5 637.833,156.5 639.5,156.5C 639.667,187.835 639.5,219.168 639,250.5C 638.283,249.956 637.783,249.289 637.5,248.5C 638.498,218.338 638.831,188.005 638.5,157.5C 636.901,157.768 635.568,157.434 634.5,156.5 Z"></path></g><g><path style="opacity:1" fill="#2d2d2d" d="M 551.5,193.5 C 550.502,226.662 550.168,259.996 550.5,293.5C 549.17,259.998 549.17,226.331 550.5,192.5C 551.107,192.624 551.44,192.957 551.5,193.5 Z"></path></g></svg>