<?xml version="1.0" encoding="UTF-8"?>
<!DOCTYPE svg PUBLIC "-//W3C//DTD SVG 1.1//EN" "http://www.w3.org/Graphics/SVG/1.1/DTD/svg11.dtd">
<svg xmlns="http://www.w3.org/2000/svg" version="1.1" width="480px" height="480px" style="shape-rendering:geometricPrecision; text-rendering:geometricPrecision; image-rendering:optimizeQuality; fill-rule:evenodd; clip-rule:evenodd" xmlns:xlink="http://www.w3.org/1999/xlink">
<g><path style="opacity:0.943" fill="#fcfdfd" d="M 236.5,-0.5 C 242.833,-0.5 249.167,-0.5 255.5,-0.5C 270.534,4.02646 281.034,13.6931 287,28.5C 337.333,135.833 387.667,243.167 438,350.5C 445.941,377.701 437.107,397.201 411.5,409C 330.358,432.441 249.358,455.941 168.5,479.5C 164.167,479.5 159.833,479.5 155.5,479.5C 144.458,477.053 135.292,471.387 128,462.5C 100.582,419.996 72.9155,377.662 45,335.5C 35.3408,316.383 36.6741,298.049 49,280.5C 102.396,194.765 155.396,108.765 208,22.5C 214.57,11.1404 224.07,3.47374 236.5,-0.5 Z"/></g>
<g><path style="opacity:1" fill="#0d344b" d="M 422.5,357.5 C 423.254,362.463 423.587,367.463 423.5,372.5C 421.512,383.949 414.846,391.116 403.5,394C 324.969,416.067 246.635,438.734 168.5,462C 156.968,464.477 147.801,460.977 141,451.5C 115.667,412.833 90.3333,374.167 65,335.5C 61.221,330.277 58.221,324.61 56,318.5C 54.3622,309.941 55.6955,301.941 60,294.5C 114.251,207.001 168.251,119.334 222,31.5C 231.246,15.6468 244.08,11.8135 260.5,20C 263,22.5 265.5,25 268,27.5C 319.785,137.401 371.285,247.401 422.5,357.5 Z"/></g>
<g><path style="opacity:1" fill="#fdfefe" d="M 252.5,72.5 C 255.652,71.9586 258.152,72.9586 260,75.5C 304.394,169.288 349.061,262.955 394,356.5C 396.288,363.865 393.788,368.698 386.5,371C 322.922,388.751 259.589,407.085 196.5,426C 180.641,432.141 174.808,426.975 179,410.5C 202.776,298.839 226.443,187.173 250,75.5C 251.045,74.6266 251.878,73.6266 252.5,72.5 Z"/></g>
<g><path style="opacity:1" fill="#425f72" d="M 422.5,357.5 C 423.991,360.186 424.657,363.186 424.5,366.5C 424.495,368.696 424.162,370.696 423.5,372.5C 423.587,367.463 423.254,362.463 422.5,357.5 Z"/></g>
</svg>
